<svg xmlns="http://www.w3.org/2000/svg" xmlns:xlink="http://www.w3.org/1999/xlink" width="236" height="236" viewBox="0 0 236 236">
    <defs>
        <filter id="Ellipse_6" x="0" y="0" width="236" height="236" filterUnits="userSpaceOnUse">
            <feOffset dx="-1" dy="1" input="SourceAlpha"/>
            <feGaussianBlur stdDeviation="2" result="blur"/>
            <feFlood flood-color="#772af2" flood-opacity="0.361"/>
            <feComposite operator="in" in2="blur"/>
            <feComposite in="SourceGraphic"/>
        </filter>
        <linearGradient id="linear-gradient" x1="0.5" x2="0.451" y2="1.118" gradientUnits="objectBoundingBox">
            <stop offset="0" stop-color="#7526e6"/>
            <stop offset="1" stop-color="#3b1373"/>
        </linearGradient>
    </defs>
    <g id="Group_1" data-name="Group 1" transform="translate(-77 -282)">
        <g transform="matrix(1, 0, 0, 1, 77, 282)" filter="url(#Ellipse_6)">
            <g id="Ellipse_6-2" data-name="Ellipse 6" transform="translate(7 5)" fill="#f4e2ff" stroke="#7526e6" stroke-width="3">
                <circle cx="112" cy="112" r="112" stroke="none"/>
                <circle cx="112" cy="112" r="110.5" fill="none"/>
            </g>
        </g>
        <g id="Group_56" data-name="Group 56" transform="translate(131 323.149)">
            <path id="Path_286" data-name="Path 286" d="M170.876-521.43a27.759,27.759,0,0,0-12.357,6.043c-3.656,3.323-6.889,9.547-8.4,16.255-.6,2.78-.7,10.544-.151,12.9,1.209,4.985,1.994,6.314,3.5,5.922.423-.091,2.6-2.87,6.194-7.886a95.274,95.274,0,0,1,5.861-7.7,6.958,6.958,0,0,1,1.692,1.178,85.652,85.652,0,0,0,12.176,7.7c8.792,4.471,16.5,6.617,25.228,7.04,3.414.151,4.079.121,4.743-.332,1.088-.7,1.027-1.873-.3-4.5a41.287,41.287,0,0,0-4.864-7.553,14.063,14.063,0,0,1-1.48-2.024c.091,0,1.269.272,2.659.6,2.87.7,4.2.755,4.713.242,1.541-1.541-2.236-10.031-5.922-13.233a22.439,22.439,0,0,0-8.671-4.079c-1.329-.3-2.628-.574-2.87-.665-.242-.06.786-.786,2.357-1.631,2.659-1.45,2.78-1.541,2.78-2.538a1.485,1.485,0,0,0-.725-1.511c-1.873-1.239-10.363-1.783-14.774-.937a32.918,32.918,0,0,0-4.623,1.36,19.471,19.471,0,0,1-2.417.846,17.625,17.625,0,0,1,.332-2.024c.574-2.568.544-2.629-.151-3.323S173.747-522,170.876-521.43Z" transform="translate(-116.529 521.833)" fill="url(#linear-gradient)"/>
            <path id="Path_287" data-name="Path 287" d="M408.762-432.513c-.816.816-.3,1.632,3.021,4.985l3.384,3.414-3.535,3.565c-3.444,3.5-3.958,4.351-3.172,5.136.846.846,1.662.3,5.771-3.807,3.082-3.112,4.139-4.351,4.139-4.894,0-.574-1-1.752-4.049-4.774C410.363-432.755,409.547-433.3,408.762-432.513Z" transform="translate(-296.95 459.715)" fill="url(#linear-gradient)"/>
            <path id="Path_288" data-name="Path 288" d="M456.61-384.4a1,1,0,0,0-.211,1.36l.363.755h7.523c4.139,0,7.734-.091,8.006-.181.574-.212.634-1.662.121-2.175-.272-.272-2.417-.363-7.8-.363C457.547-385,457.124-384.97,456.61-384.4Z" transform="translate(-330.508 426.341)" fill="url(#linear-gradient)"/>
            <path id="Path_289" data-name="Path 289" d="M72.32-377.6c-1,.574-1.722,2.659-1.722,4.985,0,5.136,3.021,10.212,6.5,10.877l1,.181.363,2.9a26.693,26.693,0,0,0,2.6,8.792c.393.755.634,1.45.514,1.571-.151.121-2.749,1.541-5.831,3.142-15.318,8.037-15.439,8.1-17.554,10.061-2.659,2.477-4.109,4.713-5.8,9.064-3.5,8.913-11.662,31.18-11.964,32.63a16.45,16.45,0,0,0,4.32,14.351c2.206,2.266,5.529,4.653,7.009,5.015,1.752.453,99.793.453,101.394.03,1.209-.363,4.109-2.387,6.345-4.471a15.884,15.884,0,0,0,5.076-11.9,18.035,18.035,0,0,0-.423-4.169c-.363-1.239-9.336-25.349-11.843-31.935a22.84,22.84,0,0,0-4.079-7.07c-2.3-2.749-3.807-3.656-19.608-11.843-2.568-1.329-4.864-2.6-5.106-2.81-.393-.332-.272-.725.665-2.749a23.088,23.088,0,0,0,2.206-8.309l.211-2.266,1.39-.363c1.9-.514,4.23-2.931,5.166-5.348.846-2.266,1.148-6.4.544-8.127-.332-1-.544-1.239-1.269-1.3-1.209-.151-1.42.332-1.209,2.961.453,5.559-2.024,9.638-5.861,9.668-1.239,0-1.42.453-1.662,4.23a18.93,18.93,0,0,1-2.357,8.49,21.433,21.433,0,0,1-16.557,11.451c-6.163.876-13.5-1.843-17.946-6.647-3.5-3.777-5.2-7.7-5.771-13.294a24.239,24.239,0,0,0-.574-3.867,1.777,1.777,0,0,0-1.148-.363c-3.2,0-5.68-3.293-5.952-7.916-.091-1.722-.03-2.538.3-3.021.816-1.269.846-1.752.242-2.357C73.227-378.021,73.076-378.051,72.32-377.6Zm16.5,36.346a21.313,21.313,0,0,0,12.236,4.018,22.965,22.965,0,0,0,18.188-6.737c2.085-1.994,2.357-2.175,2.9-1.813.3.211,4.955,2.659,10.3,5.469,5.348,2.78,10.484,5.68,11.39,6.4a18.094,18.094,0,0,1,5.287,6.858C150-325.027,159.575-299.5,161.146-295a13.7,13.7,0,0,1-1.42,12.055,26.772,26.772,0,0,1-6.405,5.861c-1.088.574-1.662.665-5.106.665-3.2,0-3.867-.091-4.018-.483-.091-.272-.181-4.2-.181-8.732,0-6.254.091-8.369.393-8.611.181-.211,1.873-1.269,3.686-2.387,2.749-1.692,3.354-2.175,3.414-2.84.091-.634-.091-.876-.665-1.148-.7-.332-1.057-.181-3.626,1.36-1.571.937-2.931,1.692-3.021,1.692s-.181-5.8-.181-12.931c0-12.81,0-12.9-.7-14.109a8.572,8.572,0,0,0-1.964-2.115l-1.329-.906H64.918l-1.329.906a9.142,9.142,0,0,0-2.054,2.266l-.755,1.36-.151,12.75-.151,12.78-2.84-1.692c-2.477-1.511-2.9-1.662-3.565-1.36a.912.912,0,0,0-.56.44.912.912,0,0,0-.074.708c.06.7.665,1.148,3.626,2.961L60.6-294.4l.03,8.973v9H56.912a28.869,28.869,0,0,1-4.653-.272c-1.118-.332-5.408-3.777-6.556-5.317a20.515,20.515,0,0,1-1.783-3.112c-.906-1.873-.967-2.236-.937-5.2V-293.5l6.4-17.07c3.535-9.366,6.737-17.584,7.13-18.279a19.041,19.041,0,0,1,5.317-5.74c1.088-.725,6.375-3.626,11.783-6.466l9.819-5.136,1.45,1.632a23.713,23.713,0,0,0,3.929,3.3Zm50.335,16.436a5.289,5.289,0,0,1,1.662,1.36c.634.846.634,1.057.634,23.868v23.022l-39.035.091-39.065.06V-322.25l.7-1.027c1.48-2.236-1.36-2.085,38.431-2.085,33.351,0,35.707.032,36.674.546Z" transform="translate(-40.119 421.386)" fill="url(#linear-gradient)"/>
            <path id="Path_290" data-name="Path 290" d="M173.681-375.7c-.755.423-.7.967.665,5.317,1.843,5.831,2.3,6.1,9.366,6.133,6.828,0,7.463-.393,8.913-5.438l1-3.474,1.631-.091,1.662-.091,1.027,3.384c1.6,5.287,2.266,5.71,9.185,5.71s7.523-.393,9.094-5.952c1.088-3.867,1.239-4.894.665-5.469C216.4-376.157,174.467-376.187,173.681-375.7Z" transform="translate(-132.99 420.096)" fill="url(#linear-gradient)"/>
            <path id="Path_291" data-name="Path 291" d="M373.233-344.571c-.06.212-.091,3.354-.06,6.979.091,5.922.151,6.647.634,6.949a.861.861,0,0,0,1.057,0c.453-.3.514-1.027.6-7.07.06-5.2-.03-6.8-.3-7.009C374.562-345.084,373.414-344.994,373.233-344.571Z" transform="translate(-272.54 398.39)" fill="url(#linear-gradient)"/>
            <path id="Path_292" data-name="Path 292" d="M395.175-344.445C393.3-343.3,393-342.39,393-337.768c0,3.777.06,4.2.7,5.106a4.566,4.566,0,0,0,4.064,2.058,4.566,4.566,0,0,0,3.821-2.481c.725-1.511.7-8.067-.06-9.547a4.576,4.576,0,0,0-2.786-2.258,4.576,4.576,0,0,0-3.559.445Zm3.686,2.689c.423.453.483,1.118.423,4.139-.091,3.535-.091,3.565-.906,4.049a1.319,1.319,0,0,1-1.662,0c-.846-.483-.846-.514-.937-4.049-.091-3.988.181-4.713,1.752-4.713A1.983,1.983,0,0,1,398.861-341.756Z" transform="translate(-286.385 398.475)" fill="url(#linear-gradient)"/>
            <path id="Path_293" data-name="Path 293" d="M435.233-344.581c-.06.211-.091,3.354-.06,6.979.091,5.922.151,6.647.634,6.949a.861.861,0,0,0,1.057,0c.453-.3.514-1.027.6-6.919.06-4.592-.03-6.707-.272-6.979C436.774-345.1,435.445-345.1,435.233-344.581Z" transform="translate(-315.808 398.4)" fill="url(#linear-gradient)"/>
            <path id="Path_294" data-name="Path 294" d="M457.175-344.423c-1.873,1.148-2.175,2.054-2.175,6.677,0,3.777.06,4.2.7,5.136a4.389,4.389,0,0,0,2.772,1.938,4.389,4.389,0,0,0,3.328-.609c1.843-1.057,2.266-2.326,2.266-6.737,0-4.018-.363-5.136-2.115-6.345A4.731,4.731,0,0,0,457.175-344.423Zm3.626,2.629c.453.423.544.967.544,3.928,0,3.021-.06,3.474-.6,4.018a1.691,1.691,0,0,1-1.389.577,1.691,1.691,0,0,1-1.3-.758c-.544-.7-.634-1.239-.634-3.656,0-2.689.272-3.9,1.027-4.381a2.189,2.189,0,0,1,2.351.272Z" transform="translate(-329.653 398.453)" fill="url(#linear-gradient)"/>
            <path id="Path_295" data-name="Path 295" d="M408.514-278.415c-.453.483-.514,1.42-.514,6.677a39.86,39.86,0,0,0,.3,6.707,1.417,1.417,0,0,0,.982.55,1.417,1.417,0,0,0,1.073-.339c.514-.514.514-13.263,0-13.777a1.216,1.216,0,0,0-.962-.334A1.216,1.216,0,0,0,408.514-278.415Z" transform="translate(-296.853 352.325)" fill="url(#linear-gradient)"/>
            <path id="Path_296" data-name="Path 296" d="M428.566-278.41c-1.994.967-2.326,1.843-2.417,6.586-.06,3.807-.03,4.32.544,5.227a4.633,4.633,0,0,0,3.928,2.175,4.633,4.633,0,0,0,3.928-2.175c.514-.876.6-1.541.6-5.076,0-3.837-.06-4.169-.725-5.166a4.6,4.6,0,0,0-5.857-1.571Zm3.323,2.719c.453.423.544.967.544,3.958,0,3.837-.3,4.592-1.752,4.592-1.6,0-1.873-.665-1.873-4.471,0-2.81.091-3.6.514-4.049a1.9,1.9,0,0,1,2.568-.029Z" transform="translate(-309.504 352.29)" fill="url(#linear-gradient)"/>
            <path id="Path_297" data-name="Path 297" d="M467.477-278.425a5.837,5.837,0,0,0-1.752,1.6c-.665,1-.725,1.329-.725,5.166,0,3.535.091,4.2.6,5.076a4.556,4.556,0,0,0,4.028,2.181,4.556,4.556,0,0,0,3.888-2.423c.755-1.48.786-8.037.06-9.547a4.692,4.692,0,0,0-6.1-2.053Zm3.2,2.719c.634.423.665.7.665,3.958,0,3.9-.272,4.623-1.813,4.623-1.571,0-1.964-.906-1.964-4.532,0-2.78.091-3.354.574-3.9a1.771,1.771,0,0,1,1.239-.613,1.771,1.771,0,0,1,1.3.464Z" transform="translate(-336.632 352.275)" fill="url(#linear-gradient)"/>
            <path id="Path_298" data-name="Path 298" d="M504.363-278.637c-.272.272-.363,2.236-.363,6.919,0,7.13.091,7.493,1.662,7.1l.755-.181v-6.737c0-6.919-.091-7.463-1.209-7.463A1.334,1.334,0,0,0,504.363-278.637Z" transform="translate(-363.849 352.367)" fill="url(#linear-gradient)"/>
        </g>
    </g>
</svg>